<svg width="222" height="196" viewBox="0 0 222 196" fill="none" xmlns="http://www.w3.org/2000/svg">
<path d="M112.261 7.7665C108.609 6.5468 104.657 8.51922 103.438 12.1727L92.8124 43.9928L76.5687 61.6066L57.488 61.6608C52.8676 61.6739 48.2789 62.4192 43.8918 63.8683L26.1717 69.7218L12.5191 51.8252C10.1833 48.7628 5.80666 48.1739 2.74462 50.5101C-0.317417 52.8463 -0.906236 57.2226 1.42996 60.2846L17.9529 81.9443C19.6951 84.2276 22.6427 85.1972 25.3804 84.4293L47.0345 78.4973V124.964L38.8677 146.572C38.6405 147.172 38.4857 147.798 38.4059 148.435L33.6724 186.215C33.0662 191.052 36.8324 195.349 41.7429 195.349C45.7792 195.349 49.2783 192.343 49.793 188.235L54.4064 151.413L64.2347 125.41L72.4027 125.322L86.7893 152.108L83.7815 186.517C83.3674 191.251 87.0933 195.349 91.8832 195.349C96.0496 195.348 99.5968 192.161 99.9667 187.932L103.186 151.109C103.324 149.533 102.998 147.951 102.25 146.557L86.2894 116.842V72.1625L104.081 52.3477C104.749 51.6227 105.256 50.7642 105.569 49.829L116.668 16.5901C117.888 12.9367 115.915 8.98663 112.261 7.7665V7.7665Z" fill="black"/>
<path d="M68.6313 56.0537C77.1319 55.9617 83.9489 48.9965 83.8569 40.4959C83.7655 31.9953 76.7998 25.1783 68.2992 25.2698C59.7986 25.3618 52.9816 32.327 53.0736 40.8276C53.165 49.3286 60.1307 56.1456 68.6313 56.0537Z" fill="black"/>
<path d="M183.429 70.6553L209.182 53.9259C210.456 53.0987 211.425 51.8772 211.941 50.4485L221.583 23.7804C222.892 20.1581 221.018 16.1604 217.395 14.8509C213.773 13.5411 209.775 15.4163 208.466 19.0382L199.62 43.5045L173.565 60.4299L156.958 57.8925L141.05 35.5412L143.626 7.94944C143.983 4.11474 141.165 0.715365 137.33 0.357651C133.494 -0.000930944 130.096 2.81829 129.738 6.65343L126.921 36.8255C126.766 38.4905 127.214 40.1555 128.183 41.5178L144.968 65.1005C144.906 65.4665 139.438 101.277 137.821 111.856L126.708 142.461C126.385 143.349 126.22 144.288 126.22 145.233V187.226C126.22 191.712 129.857 195.349 134.343 195.349C138.83 195.349 142.467 191.712 142.467 187.226V146.662L152.615 118.715L157.803 120.013L166.288 149.406C167.07 152.112 169.197 154.221 171.911 154.978L206.229 164.547C210.551 165.752 215.031 163.224 216.235 158.904C217.44 154.582 214.914 150.102 210.592 148.897L180.64 140.545L175.49 122.702C180.675 88.7483 183.39 71.0438 183.429 70.6553V70.6553Z" fill="black"/>
<path d="M162.337 53.2377C170.641 54.5064 178.402 48.8029 179.671 40.4988C180.939 32.1946 175.236 24.4337 166.932 23.165C158.627 21.8963 150.867 27.5998 149.598 35.904C148.329 44.2081 154.032 51.969 162.337 53.2377Z" fill="black"/>
</svg>
