<svg width="227" height="227" viewBox="0 0 227 227" fill="none" xmlns="http://www.w3.org/2000/svg">
<path d="M214.1 96.7117C210.607 94.1357 206.244 90.9181 205.672 88.7862C205.05 86.4472 207.27 81.3249 209.067 77.2093C212.146 70.1425 215.324 62.8194 211.791 56.7298C208.228 50.5614 200.224 49.6533 192.496 48.7849C188.084 48.2913 182.597 47.6797 180.958 46.0313C179.31 44.3829 178.698 38.8956 178.204 34.4936C177.336 26.7658 176.438 18.7714 170.26 15.1985C164.891 12.0799 156.936 14.8039 149.78 17.9225C145.832 19.6398 141.707 21.278 138.193 21.3178C136.062 20.7455 132.854 16.3829 130.268 12.889C125.827 6.84932 120.783 0 113.5 0C106.226 0 101.173 6.84932 96.7214 12.8895C94.1357 16.393 90.9278 20.7557 87.9077 21.4168C85.2429 21.4168 81.1569 19.6403 77.2092 17.923C70.0342 14.8043 62.0695 12.1099 56.7399 15.199C50.5517 18.7719 49.6537 26.7662 48.7849 34.5038C48.2913 38.9155 47.6797 44.3931 46.041 46.0415C44.3927 47.6797 38.9053 48.3015 34.5034 48.7854C26.7658 49.6537 18.7613 50.5619 15.1985 56.7302C11.6751 62.8199 14.8529 70.1332 17.9225 77.2097C19.7189 81.3253 21.9493 86.4573 21.3178 88.7964C20.7455 90.9282 16.393 94.1459 12.889 96.7218C6.84932 101.163 0 106.216 0 113.5C0 120.784 6.84932 125.837 12.8997 130.288C16.3935 132.864 20.7557 136.081 21.3284 138.213C21.9502 140.552 19.7296 145.675 17.9331 149.79C14.8538 156.857 11.676 164.18 15.2091 170.27C18.7719 176.438 26.7764 177.346 34.5043 178.215C38.916 178.708 44.4033 179.32 46.042 180.968C47.6903 182.617 48.3019 188.104 48.7956 192.506C49.6639 200.234 50.5624 208.228 56.7404 211.801C62.0797 214.91 70.0347 212.196 77.2097 209.077C81.1574 207.36 85.2138 205.613 88.7964 205.682C90.9282 206.254 94.1357 210.617 96.7218 214.111C101.173 220.151 106.216 227 113.5 227C120.774 227 125.827 220.151 130.279 214.111C132.864 210.607 136.072 206.244 139.092 205.574C141.757 205.574 145.843 207.35 149.791 209.067C156.986 212.186 164.93 214.891 170.26 211.801C176.448 208.228 177.346 200.234 178.215 192.496C178.709 188.084 179.32 182.607 180.959 180.959C182.607 179.31 188.095 178.699 192.497 178.205C200.234 177.337 208.239 176.438 211.801 170.26C215.325 164.17 212.147 156.857 209.077 149.781C207.281 145.665 205.06 140.533 205.682 138.204C206.254 136.072 210.607 132.854 214.111 130.278C220.151 125.837 227 120.784 227 113.5C227 106.216 220.15 101.163 214.1 96.7117ZM88.826 133.239C88.826 135.361 87.464 137.246 85.4506 137.917C84.9376 138.095 84.4143 138.174 83.8911 138.174C82.3713 138.174 80.8909 137.463 79.9434 136.2L59.2174 108.565V133.239C59.2174 135.963 57.0064 138.174 54.2824 138.174C51.5584 138.174 49.3475 135.963 49.3475 133.239V93.761C49.3475 91.6389 50.7095 89.7541 52.7229 89.0828C54.7265 88.4018 56.9569 89.1027 58.2301 90.8001L78.9562 118.435V93.761C78.9562 91.037 81.1671 88.826 83.8911 88.826C86.6151 88.826 88.826 91.037 88.826 93.761V133.239ZM123.37 108.565C126.094 108.565 128.305 110.776 128.305 113.5C128.305 116.224 126.094 118.435 123.37 118.435H108.565V128.304H123.37C126.094 128.304 128.305 130.515 128.305 133.239C128.305 135.963 126.094 138.174 123.37 138.174H103.63C100.906 138.174 98.6954 135.963 98.6954 133.239V93.761C98.6954 91.037 100.906 88.826 103.63 88.826H123.37C126.094 88.826 128.305 91.037 128.305 93.761C128.305 96.485 126.094 98.6959 123.37 98.6959H108.565V108.565H123.37V108.565ZM187.373 94.955L177.504 134.433C176.971 136.565 175.096 138.085 172.905 138.164C172.836 138.164 172.767 138.164 172.707 138.164C170.585 138.164 168.701 136.812 168.02 134.788L162.848 119.234L157.666 134.799C156.975 136.871 155.268 138.263 152.79 138.164C150.599 138.085 148.724 136.556 148.191 134.434L138.322 94.9555C137.671 92.3106 139.269 89.6356 141.914 88.9745C144.51 88.3033 147.234 89.9123 147.895 92.5669L153.649 115.602L158.159 102.071C159.512 98.0445 166.183 98.0445 167.525 102.071L172.036 115.602L177.789 92.5669C178.441 89.9118 181.106 88.313 183.77 88.9745C186.436 89.6352 188.035 92.3199 187.373 94.955Z" fill="black"/>
</svg>
