<svg width="130" height="28" viewBox="0 0 130 28" fill="none" xmlns="http://www.w3.org/2000/svg">
<path d="M18.8965 17.6484C18.8965 19.2539 18.6152 20.6602 18.0527 21.8672C17.502 23.0625 16.7402 24.0586 15.7676 24.8555C14.8066 25.6523 13.6758 26.25 12.375 26.6484C11.0859 27.0469 9.69727 27.2461 8.20898 27.2461C7.63477 27.2461 7.00195 27.1699 6.31055 27.0176C5.63086 26.8652 4.93945 26.6777 4.23633 26.4551C3.5332 26.2207 2.85352 25.9746 2.19727 25.7168C1.55273 25.4473 0.978516 25.1953 0.474609 24.9609L1.24805 17.7188C2.24414 18.3164 3.3457 18.7734 4.55273 19.0898C5.77148 19.3945 6.9668 19.5469 8.13867 19.5469C8.36133 19.5469 8.63086 19.541 8.94727 19.5293C9.26367 19.5059 9.5625 19.4531 9.84375 19.3711C10.1367 19.2773 10.3828 19.1426 10.582 18.9668C10.7812 18.791 10.8809 18.5391 10.8809 18.2109C10.8809 17.9883 10.8105 17.8008 10.6699 17.6484C10.5293 17.4844 10.3477 17.3555 10.125 17.2617C9.90234 17.1562 9.65039 17.0801 9.36914 17.0332C9.08789 16.9746 8.8125 16.9336 8.54297 16.9102C8.27344 16.8867 8.02148 16.875 7.78711 16.875C7.55273 16.875 7.36523 16.875 7.22461 16.875C6.2168 16.875 5.29688 16.6992 4.46484 16.3477C3.64453 15.9961 2.93555 15.5098 2.33789 14.8887C1.75195 14.2559 1.29492 13.5117 0.966797 12.6562C0.638672 11.7891 0.474609 10.8516 0.474609 9.84375C0.474609 8.46094 0.75 7.22461 1.30078 6.13477C1.86328 5.0332 2.60742 4.10156 3.5332 3.33984C4.4707 2.56641 5.54297 1.97461 6.75 1.56445C7.95703 1.1543 9.20508 0.949219 10.4941 0.949219C11.0684 0.949219 11.6602 0.972656 12.2695 1.01953C12.8789 1.05469 13.4824 1.125 14.0801 1.23047C14.6895 1.33594 15.2812 1.4707 15.8555 1.63477C16.4297 1.79883 16.9746 2.00391 17.4902 2.25L16.8223 9.38672C16.0254 9.11719 15.1875 8.89453 14.3086 8.71875C13.4414 8.53125 12.5918 8.4375 11.7598 8.4375C11.6074 8.4375 11.4082 8.44336 11.1621 8.45508C10.9277 8.45508 10.6758 8.47266 10.4062 8.50781C10.1484 8.53125 9.88477 8.57227 9.61523 8.63086C9.3457 8.68945 9.10547 8.77148 8.89453 8.87695C8.68359 8.9707 8.51367 9.09961 8.38477 9.26367C8.25586 9.42773 8.19727 9.62109 8.20898 9.84375C8.2207 10.1016 8.31445 10.3125 8.49023 10.4766C8.67773 10.6289 8.91211 10.752 9.19336 10.8457C9.48633 10.9277 9.80273 10.9863 10.1426 11.0215C10.4941 11.0566 10.8398 11.0801 11.1797 11.0918C11.5195 11.0918 11.8359 11.0918 12.1289 11.0918C12.4219 11.0801 12.6621 11.0859 12.8496 11.1094C13.7871 11.168 14.6309 11.3672 15.3809 11.707C16.1309 12.0469 16.7637 12.498 17.2793 13.0605C17.8066 13.623 18.2051 14.2969 18.4746 15.082C18.7559 15.8555 18.8965 16.7109 18.8965 17.6484ZM37.4414 2.28516L36.457 9.70312C36.1172 9.60938 35.7773 9.54492 35.4375 9.50977C35.0977 9.47461 34.7578 9.45703 34.418 9.45703C33.5508 9.45703 32.7246 9.57422 31.9395 9.80859C31.1543 10.0312 30.457 10.377 29.8477 10.8457C29.25 11.3145 28.7695 11.9004 28.4062 12.6035C28.0547 13.3066 27.8789 14.1328 27.8789 15.082C27.8789 15.6914 27.9727 16.2188 28.1602 16.6641C28.3594 17.1094 28.6348 17.4785 28.9863 17.7715C29.3379 18.0645 29.7539 18.2812 30.2344 18.4219C30.7148 18.5625 31.2422 18.6328 31.8164 18.6328C32.25 18.6328 32.7012 18.5859 33.1699 18.4922C33.6387 18.3984 34.1016 18.2754 34.5586 18.123C35.0156 17.9707 35.4609 17.7949 35.8945 17.5957C36.3281 17.3965 36.7266 17.1914 37.0898 16.9805L36.3867 25.2422C35.9297 25.4766 35.4316 25.6875 34.8926 25.875C34.3652 26.0508 33.8203 26.209 33.2578 26.3496C32.6953 26.4785 32.1328 26.5781 31.5703 26.6484C31.0078 26.7188 30.4688 26.7539 29.9531 26.7539C28.4648 26.7539 27.0762 26.4785 25.7871 25.9277C24.498 25.377 23.3789 24.6211 22.4297 23.6602C21.4805 22.6992 20.7305 21.5684 20.1797 20.2676C19.6406 18.9551 19.3711 17.543 19.3711 16.0312C19.3711 14.0273 19.6582 12.1406 20.2324 10.3711C20.8066 8.58984 21.6504 7.03125 22.7637 5.69531C23.877 4.35938 25.2539 3.30469 26.8945 2.53125C28.5469 1.75781 30.4453 1.37109 32.5898 1.37109C33.3984 1.37109 34.2246 1.43555 35.0684 1.56445C35.9238 1.69336 36.7148 1.93359 37.4414 2.28516ZM59.1504 10.0547C59.1504 10.9688 59.0684 11.8008 58.9043 12.5508C58.752 13.2891 58.5059 13.9688 58.166 14.5898C57.8262 15.2109 57.3867 15.7852 56.8477 16.3125C56.3086 16.8398 55.6582 17.3438 54.8965 17.8242L59.0801 25.2773L51.1699 26.8242L48.4629 19.3359L46.2832 19.4062L45.9668 26.7188H38.4082C38.4668 24.0469 38.5195 21.3867 38.5664 18.7383C38.625 16.0898 38.6895 13.4297 38.7598 10.7578C38.7832 9.41016 38.8066 8.07422 38.8301 6.75C38.8535 5.42578 38.9004 4.08984 38.9707 2.74219C39.791 2.4375 40.5996 2.18555 41.3965 1.98633C42.1934 1.78711 42.9902 1.63477 43.7871 1.5293C44.5957 1.41211 45.4102 1.33594 46.2305 1.30078C47.0625 1.25391 47.9121 1.23047 48.7793 1.23047C50.1152 1.23047 51.4043 1.41797 52.6465 1.79297C53.9004 2.15625 55.0078 2.70703 55.9688 3.44531C56.9297 4.18359 57.6973 5.10352 58.2715 6.20508C58.8574 7.30664 59.1504 8.58984 59.1504 10.0547ZM51.2754 10.6172C51.2754 10.125 51.2051 9.67383 51.0645 9.26367C50.9355 8.85352 50.7363 8.50195 50.4668 8.20898C50.209 7.9043 49.8809 7.66992 49.4824 7.50586C49.0957 7.33008 48.6387 7.24219 48.1113 7.24219C47.877 7.24219 47.6484 7.25977 47.4258 7.29492C47.2031 7.31836 46.9863 7.35938 46.7754 7.41797L46.4941 13.957H46.916C47.4199 13.957 47.9297 13.8926 48.4453 13.7637C48.9727 13.6348 49.4414 13.4355 49.8516 13.166C50.2734 12.8965 50.6133 12.5508 50.8711 12.1289C51.1406 11.707 51.2754 11.2031 51.2754 10.6172ZM82.5469 25.4883L73.8281 26.6133L72.7734 22.6406H68.7656L67.8867 26.6133L58.9219 25.7344L65.918 2.32031L75.6914 1.82812L82.5469 25.4883ZM72.1406 17.2617L70.8047 11.1445L69.5039 17.2617H72.1406ZM113.291 2.60156L109.178 26.9648L99.1934 27.1758L97.0488 14.5547L94.9043 26.2617L84.9199 26.6133L80.7715 2.60156L89.4902 1.82812L91.248 16.418L93.6035 1.82812H100.459L103.201 16.5938L104.607 1.82812L113.291 2.60156ZM129.551 16.9805L128.812 24.7852L114.012 25.9453C114.082 21.8555 114.158 17.7891 114.24 13.7461C114.334 9.70312 114.445 5.63672 114.574 1.54688H123.715C123.445 4.11328 123.188 6.67969 122.941 9.24609C122.695 11.8008 122.52 14.3789 122.414 16.9805C122.965 17.0039 123.51 17.0156 124.049 17.0156C124.588 17.0156 125.133 17.0156 125.684 17.0156C126.34 17.0156 126.984 17.0098 127.617 16.998C128.25 16.9863 128.895 16.9805 129.551 16.9805Z" fill="black"/>
</svg>
