<svg width="260" height="54" viewBox="0 0 260 54" fill="none" xmlns="http://www.w3.org/2000/svg">
<path d="M37.793 34.2969C37.793 37.5078 37.2305 40.3203 36.1055 42.7344C35.0039 45.125 33.4805 47.1172 31.5352 48.7109C29.6133 50.3047 27.3516 51.5 24.75 52.2969C22.1719 53.0938 19.3945 53.4922 16.418 53.4922C15.2695 53.4922 14.0039 53.3398 12.6211 53.0352C11.2617 52.7305 9.87891 52.3555 8.47266 51.9102C7.06641 51.4414 5.70703 50.9492 4.39453 50.4336C3.10547 49.8945 1.95703 49.3906 0.949219 48.9219L2.49609 34.4375C4.48828 35.6328 6.69141 36.5469 9.10547 37.1797C11.543 37.7891 13.9336 38.0938 16.2773 38.0938C16.7227 38.0938 17.2617 38.082 17.8945 38.0586C18.5273 38.0117 19.125 37.9062 19.6875 37.7422C20.2734 37.5547 20.7656 37.2852 21.1641 36.9336C21.5625 36.582 21.7617 36.0781 21.7617 35.4219C21.7617 34.9766 21.6211 34.6016 21.3398 34.2969C21.0586 33.9688 20.6953 33.7109 20.25 33.5234C19.8047 33.3125 19.3008 33.1602 18.7383 33.0664C18.1758 32.9492 17.625 32.8672 17.0859 32.8203C16.5469 32.7734 16.043 32.75 15.5742 32.75C15.1055 32.75 14.7305 32.75 14.4492 32.75C12.4336 32.75 10.5938 32.3984 8.92969 31.6953C7.28906 30.9922 5.87109 30.0195 4.67578 28.7773C3.50391 27.5117 2.58984 26.0234 1.93359 24.3125C1.27734 22.5781 0.949219 20.7031 0.949219 18.6875C0.949219 15.9219 1.5 13.4492 2.60156 11.2695C3.72656 9.06641 5.21484 7.20312 7.06641 5.67969C8.94141 4.13281 11.0859 2.94922 13.5 2.12891C15.9141 1.30859 18.4102 0.898438 20.9883 0.898438C22.1367 0.898438 23.3203 0.945312 24.5391 1.03906C25.7578 1.10938 26.9648 1.25 28.1602 1.46094C29.3789 1.67188 30.5625 1.94141 31.7109 2.26953C32.8594 2.59766 33.9492 3.00781 34.9805 3.5L33.6445 17.7734C32.0508 17.2344 30.375 16.7891 28.6172 16.4375C26.8828 16.0625 25.1836 15.875 23.5195 15.875C23.2148 15.875 22.8164 15.8867 22.3242 15.9102C21.8555 15.9102 21.3516 15.9453 20.8125 16.0156C20.2969 16.0625 19.7695 16.1445 19.2305 16.2617C18.6914 16.3789 18.2109 16.543 17.7891 16.7539C17.3672 16.9414 17.0273 17.1992 16.7695 17.5273C16.5117 17.8555 16.3945 18.2422 16.418 18.6875C16.4414 19.2031 16.6289 19.625 16.9805 19.9531C17.3555 20.2578 17.8242 20.5039 18.3867 20.6914C18.9727 20.8555 19.6055 20.9727 20.2852 21.043C20.9883 21.1133 21.6797 21.1602 22.3594 21.1836C23.0391 21.1836 23.6719 21.1836 24.2578 21.1836C24.8438 21.1602 25.3242 21.1719 25.6992 21.2188C27.5742 21.3359 29.2617 21.7344 30.7617 22.4141C32.2617 23.0938 33.5273 23.9961 34.5586 25.1211C35.6133 26.2461 36.4102 27.5938 36.9492 29.1641C37.5117 30.7109 37.793 32.4219 37.793 34.2969ZM74.8828 3.57031L72.9141 18.4062C72.2344 18.2188 71.5547 18.0898 70.875 18.0195C70.1953 17.9492 69.5156 17.9141 68.8359 17.9141C67.1016 17.9141 65.4492 18.1484 63.8789 18.6172C62.3086 19.0625 60.9141 19.7539 59.6953 20.6914C58.5 21.6289 57.5391 22.8008 56.8125 24.207C56.1094 25.6133 55.7578 27.2656 55.7578 29.1641C55.7578 30.3828 55.9453 31.4375 56.3203 32.3281C56.7188 33.2188 57.2695 33.957 57.9727 34.543C58.6758 35.1289 59.5078 35.5625 60.4688 35.8438C61.4297 36.125 62.4844 36.2656 63.6328 36.2656C64.5 36.2656 65.4023 36.1719 66.3398 35.9844C67.2773 35.7969 68.2031 35.5508 69.1172 35.2461C70.0312 34.9414 70.9219 34.5898 71.7891 34.1914C72.6562 33.793 73.4531 33.3828 74.1797 32.9609L72.7734 49.4844C71.8594 49.9531 70.8633 50.375 69.7852 50.75C68.7305 51.1016 67.6406 51.418 66.5156 51.6992C65.3906 51.957 64.2656 52.1562 63.1406 52.2969C62.0156 52.4375 60.9375 52.5078 59.9062 52.5078C56.9297 52.5078 54.1523 51.957 51.5742 50.8555C48.9961 49.7539 46.7578 48.2422 44.8594 46.3203C42.9609 44.3984 41.4609 42.1367 40.3594 39.5352C39.2812 36.9102 38.7422 34.0859 38.7422 31.0625C38.7422 27.0547 39.3164 23.2812 40.4648 19.7422C41.6133 16.1797 43.3008 13.0625 45.5273 10.3906C47.7539 7.71875 50.5078 5.60938 53.7891 4.0625C57.0938 2.51562 60.8906 1.74219 65.1797 1.74219C66.7969 1.74219 68.4492 1.87109 70.1367 2.12891C71.8477 2.38672 73.4297 2.86719 74.8828 3.57031ZM118.301 19.1094C118.301 20.9375 118.137 22.6016 117.809 24.1016C117.504 25.5781 117.012 26.9375 116.332 28.1797C115.652 29.4219 114.773 30.5703 113.695 31.625C112.617 32.6797 111.316 33.6875 109.793 34.6484L118.16 49.5547L102.34 52.6484L96.9258 37.6719L92.5664 37.8125L91.9336 52.4375H76.8164C76.9336 47.0938 77.0391 41.7734 77.1328 36.4766C77.25 31.1797 77.3789 25.8594 77.5195 20.5156C77.5664 17.8203 77.6133 15.1484 77.6602 12.5C77.707 9.85156 77.8008 7.17969 77.9414 4.48438C79.582 3.875 81.1992 3.37109 82.793 2.97266C84.3867 2.57422 85.9805 2.26953 87.5742 2.05859C89.1914 1.82422 90.8203 1.67188 92.4609 1.60156C94.125 1.50781 95.8242 1.46094 97.5586 1.46094C100.23 1.46094 102.809 1.83594 105.293 2.58594C107.801 3.3125 110.016 4.41406 111.938 5.89062C113.859 7.36719 115.395 9.20703 116.543 11.4102C117.715 13.6133 118.301 16.1797 118.301 19.1094ZM102.551 20.2344C102.551 19.25 102.41 18.3477 102.129 17.5273C101.871 16.707 101.473 16.0039 100.934 15.418C100.418 14.8086 99.7617 14.3398 98.9648 14.0117C98.1914 13.6602 97.2773 13.4844 96.2227 13.4844C95.7539 13.4844 95.2969 13.5195 94.8516 13.5898C94.4062 13.6367 93.9727 13.7188 93.5508 13.8359L92.9883 26.9141H93.832C94.8398 26.9141 95.8594 26.7852 96.8906 26.5273C97.9453 26.2695 98.8828 25.8711 99.7031 25.332C100.547 24.793 101.227 24.1016 101.742 23.2578C102.281 22.4141 102.551 21.4062 102.551 20.2344ZM165.094 49.9766L147.656 52.2266L145.547 44.2812H137.531L135.773 52.2266L117.844 50.4688L131.836 3.64062L151.383 2.65625L165.094 49.9766ZM144.281 33.5234L141.609 21.2891L139.008 33.5234H144.281ZM226.582 4.20312L218.355 52.9297L198.387 53.3516L194.098 28.1094L189.809 51.5234L169.84 52.2266L161.543 4.20312L178.98 2.65625L182.496 31.8359L187.207 2.65625H200.918L206.402 32.1875L209.215 2.65625L226.582 4.20312ZM259.102 32.9609L257.625 48.5703L228.023 50.8906C228.164 42.7109 228.316 34.5781 228.48 26.4922C228.668 18.4062 228.891 10.2734 229.148 2.09375H247.43C246.891 7.22656 246.375 12.3594 245.883 17.4922C245.391 22.6016 245.039 27.7578 244.828 32.9609C245.93 33.0078 247.02 33.0312 248.098 33.0312C249.176 33.0312 250.266 33.0312 251.367 33.0312C252.68 33.0312 253.969 33.0195 255.234 32.9961C256.5 32.9727 257.789 32.9609 259.102 32.9609Z" fill="#F3ED01"/>
</svg>
