<svg width="126" height="168" viewBox="0 0 126 168" fill="none" xmlns="http://www.w3.org/2000/svg">
<path d="M119 33.7936V19.0529C123.164 16.6251 126 12.16 126 6.99989V3.50011C126 1.56548 124.435 0 122.5 0H3.50011C1.56548 0 0 1.56548 0 3.50011V7.00022C0 12.16 2.83566 16.6251 6.99989 19.0532V33.7936C6.99989 47.6638 12.913 60.939 23.2217 70.2155L38.5376 84L23.2217 97.7845C12.913 107.061 6.99989 120.336 6.99989 134.206V148.947C2.83566 151.375 0 155.84 0 161V164.5C0 166.435 1.56548 168 3.50011 168H122.5C124.435 168 126 166.435 126 164.5V161C126 155.84 123.165 151.375 119 148.947V134.206C119 120.336 113.087 107.061 102.779 97.7845L87.4624 84L102.778 70.2155C113.087 60.939 119 47.6634 119 33.7936ZM93.4132 59.811L72.3174 78.7979C70.8409 80.1242 69.9999 82.0142 69.9999 84C69.9999 85.9858 70.8409 87.8761 72.3174 89.2021L93.4132 108.189C100.775 114.817 105 124.301 105 134.206V147H96.2483L65.7992 106.401C64.4798 104.638 61.5198 104.638 60.2004 106.401L29.7517 147H21V134.206C21 124.301 25.2246 114.816 32.5871 108.189L53.6829 89.2018C55.1595 87.8755 56.0004 85.9855 56.0004 83.9997C56.0004 82.0139 55.1595 80.1235 53.6829 78.7976L32.5871 59.8106C25.2246 53.1835 21 43.6987 21 33.7936V21H105V33.7936C105 43.6987 100.775 53.1835 93.4132 59.811Z" fill="black"/>
<path d="M87.1241 48.9999H38.8726C37.4883 48.9999 36.2339 49.8169 35.6734 51.0815C35.113 52.3497 35.3486 53.8263 36.2818 54.8517L60.6519 77.3351C61.3183 77.9402 62.1593 78.2407 63 78.2407C63.8406 78.2407 64.6816 77.9399 65.3481 77.3351L89.7146 54.8517C90.6478 53.8263 90.8837 52.3497 90.3229 51.0815C89.7628 49.8169 88.5084 48.9999 87.1241 48.9999Z" fill="black"/>
</svg>
